<svg xmlns="http://www.w3.org/2000/svg" width="1600" height="900" viewBox="0 0 1600 900">
  <defs>
    <linearGradient id="bg" x1="0" y1="0" x2="1" y2="1">
      <stop offset="0" stop-color="#283449"/>
      <stop offset="0.52" stop-color="#1b2638"/>
      <stop offset="1" stop-color="#121b29"/>
    </linearGradient>
    <pattern id="grid" width="40" height="40" patternUnits="userSpaceOnUse">
      <path d="M40 0H0V40" fill="none" stroke="#ffffff" stroke-opacity=".055"/>
    </pattern>
    <filter id="shadow" x="-20%" y="-20%" width="140%" height="140%">
      <feDropShadow dx="0" dy="14" stdDeviation="18" flood-color="#000" flood-opacity=".28"/>
    </filter>
  </defs>
  <rect width="1600" height="900" fill="url(#bg)"/>
  <rect width="1600" height="900" fill="url(#grid)"/>
  <g filter="url(#shadow)" stroke="#90a4c2" stroke-opacity=".4" stroke-width="3">
    <path d="M58 76H397V328H58Z" fill="#35445d"/>
    <path d="M423 76H840V328H423Z" fill="#303d54"/>
    <path d="M866 76H1542V612H866Z" fill="#263a46"/>
    <path d="M58 354H840V612H58Z" fill="#3b3b54"/>
    <path d="M58 638H356V842H58Z" fill="#2c4b51"/>
    <path d="M382 638H840V842H382Z" fill="#514436"/>
    <path d="M866 638H1542V842H866Z" fill="#303b4d"/>
  </g>
  <g fill="#dce7fa" font-family="Arial, sans-serif" font-size="22" font-weight="700" letter-spacing="3" opacity=".78">
    <text x="88" y="118">CEO OFFICE</text>
    <text x="453" y="118">MEETING ROOM</text>
    <text x="896" y="118">PRODUCT / R&amp;D</text>
    <text x="88" y="396">OPEN OFFICE</text>
    <text x="88" y="680">PANTRY</text>
    <text x="412" y="680">SALES</text>
    <text x="896" y="680">RECEPTION</text>
  </g>
  <g opacity=".28" fill="none" stroke="#b9cbe4" stroke-width="3" stroke-dasharray="10 12">
    <path d="M110 170H345V270H110Z"/>
    <path d="M485 170H780V270H485Z"/>
    <path d="M930 185H1475M930 345H1475M930 505H1475"/>
    <path d="M120 450H760M120 525H760"/>
    <circle cx="220" cy="755" r="66"/>
    <path d="M448 735H775V800H448Z"/>
    <path d="M930 730H1445V800H930Z"/>
  </g>
  <g transform="translate(800 448)" text-anchor="middle" font-family="Arial, sans-serif">
    <rect x="-235" y="-44" width="470" height="88" rx="18" fill="#0c1420" fill-opacity=".78" stroke="#9a79ff" stroke-opacity=".7"/>
    <text y="-6" fill="#ffffff" font-size="25" font-weight="700" letter-spacing="4">SCENE PLACEHOLDER</text>
    <text y="25" fill="#aebbd0" font-size="16" letter-spacing="2">1600 × 900 · REPLACE THIS IMAGE</text>
  </g>
</svg>
